#!OML:ASF F:\VICON\USERDATA\Patient Classification 1\PLAYGROUND\JustinFriday\JustinFriday.ASF
:FULLY-SPECIFIED
:DEGREES
1019
root 14.4314 31.0704 38.4634 -143.108 -6.81038 -181.051
lowerback 34.9594 -3.27398 0.0346592
upperback -0.769755 -4.79281 -0.590106
thorax -19.093 -2.17108 1.63972
lowerneck 32.8591 -5.7725 -14.5606
upperneck -28.0312 -9.03675 20.5623
head -12.9724 -5.4368 12.8148
rclavicle 7.95139e-016 1.98785e-014
rhumerus 96.1377 -19.8871 -77.1976
rradius 116.309
rwrist 21.7317
rhand -43.7514 -10.9507
rfingers 7.12502
rthumb -16.5819 -40.2622
lclavicle 7.95139e-016 1.98785e-014
lhumerus 88.3853 28.1862 54.0543
lradius 107.457
lwrist -9.54117
lhand -49.1547 -9.45597
lfingers 7.12502
lthumb -21.7776 19.3388
rfemur -35.1986 -4.12937 29.4581
rtibia 40.0581
rfoot -46.1843 -22.7816
rtoes 4.93594
lfemur -34.0745 4.47121 -16.9707
ltibia 37.0994
lfoot -42.1936 -3.72615
ltoes -7.25714
1020
root 14.4321 31.0605 38.404 -142.576 -6.06211 -180.599
lowerback 34.4804 -2.81064 -0.505838
upperback -0.823875 -4.37476 -0.482579
thorax -18.9064 -1.94432 1.8326
lowerneck 33.6478 -5.72405 -14.7754
upperneck -28.8182 -8.98859 21.0621
head -13.4173 -5.42179 13.2829
rclavicle -1.27222e-014 3.57812e-014
rhumerus 96.9096 -20.4225 -77.2956
rradius 116.439
rwrist 21.9597
rhand -43.8449 -11.3263
rfingers 7.12502
rthumb -16.6719 -40.6304
lclavicle -1.27222e-014 3.57812e-014
lhumerus 89.2145 28.5445 54.5193
lradius 107.718
lwrist -9.79272
lhand -49.0844 -8.94008
lfingers 7.12502
lthumb -21.71 19.8626
rfemur -35.5253 -3.68944 29.5464
rtibia 39.9184
rfoot -45.8239 -22.5451
rtoes 4.42489
lfemur -34.3124 4.75873 -16.8826
ltibia 37.0596
lfoot -42.182 -3.20202
ltoes -8.03426
1021
root 14.4203 31.0462 38.3385 -142.319 -6.18095 -180.614
lowerback 34.2395 -2.87386 -0.370165
upperback -0.697366 -4.39102 -0.417539
thorax -18.6442 -1.9712 1.82313
lowerneck 33.6234 -5.81288 -14.716
upperneck -28.912 -9.07722 21.0822
head -13.4305 -5.46361 13.3018
rclavicle 2.8625e-014 -1.59028e-015
rhumerus 97.9021 -21.0974 -77.4202
rradius 116.663
rwrist 21.9116
rhand -43.8001 -11.8622
rfingers 7.12502
rthumb -16.6288 -41.1699
lclavicle 2.8625e-014 -1.59028e-015
lhumerus 90.2297 28.8609 55.2671
lradius 108.146
lwrist -10.1132
lhand -48.7448 -8.53967
lfingers 7.12502
lthumb -21.3839 20.3003
rfemur -35.4894 -3.84927 29.6062
rtibia 39.7885
rfoot -45.8669 -22.272
rtoes 4.54242
lfemur -34.3344 4.74563 -16.8405
ltibia 37.015
lfoot -42.1972 -3.57822
ltoes -7.36614
1022
root 14.4074 31.0311 38.2843 -142.283 -6.16529 -180.516
lowerback 34.4453 -2.87067 -0.264107
upperback -0.66196 -4.34188 -0.366203
thorax -18.6942 -1.95866 1.80937
lowerneck 33.7407 -5.88613 -14.6837
upperneck -28.8315 -9.25757 20.9245
head -13.3868 -5.53718 13.2388
rclavicle -4.77083e-014 -2.70347e-014
rhumerus 98.6529 -21.6203 -77.516
rradius 117.176
rwrist 21.4034
rhand -43.4714 -12.2625
rfingers 7.12502
rthumb -16.3123 -41.5964
lclavicle -4.77083e-014 -2.70347e-014
lhumerus 91.0467 29.1115 56.0153
lradius 108.668
lwrist -10.3782
lhand -48.2051 -8.04191
lfingers 7.12502
lthumb -20.8655 20.856
rfemur -35.2764 -3.84906 29.6352
rtibia 39.66
rfoot -45.7838 -21.7697
rtoes 4.66761
lfemur -34.1265 4.35307 -16.6669
ltibia 37.0006
lfoot -42.2694 -3.08006
ltoes -7.08729
1023
root 14.4063 31.0133 38.2298 -142.049 -5.64469 -180.171
lowerback 34.3558 -2.58797 -0.551222
upperback -0.713636 -4.08414 -0.358237
thorax -18.7044 -1.82323 1.85139
lowerneck 34.2035 -5.90308 -14.6081
upperneck -29.0396 -9.35831 20.7682
head -13.5563 -5.56022 13.2489
rclavicle -6.36111e-015 2.3059e-014
rhumerus 99.4543 -21.9537 -78.2589
rradius 117.795
rwrist 22.7178
rhand -41.835 -13.7438
rfingers 7.12502
rthumb -14.7362 -43.2
lclavicle -6.36111e-015 2.3059e-014
lhumerus 91.6587 29.402 56.5449
lradius 109.151
lwrist -10.5348
lhand -47.6855 -7.48956
lfingers 7.12502
lthumb -20.3662 21.4625
rfemur -35.2765 -3.34644 29.6551
rtibia 39.5298
rfoot -45.5085 -22.4533
rtoes 3.01457
lfemur -34.1079 4.73529 -16.6175
ltibia 37.0037
lfoot -42.3449 -2.68476
ltoes -7.26585
1024
root 14.385 30.9939 38.1644 -142.071 -6.08695 -180.595
lowerback 34.4833 -2.96774 -0.0896912
upperback -0.587173 -4.42917 -0.481624
thorax -18.6386 -2.02267 1.62662
lowerneck 34.2179 -5.96748 -14.5272
upperneck -29.0354 -9.41958 20.7584
head -13.5479 -5.59673 13.237
rclavicle 3.4191e-014 -1.03368e-014
rhumerus 100.413 -22.4076 -79.1203
rradius 118.119
rwrist 23.8655
rhand -40.888 -14.3142
rfingers 7.12502
rthumb -13.8237 -43.8349
lclavicle 3.4191e-014 -1.03368e-014
lhumerus 92.3712 29.7561 56.975
lradius 109.471
lwrist -10.735
lhand -47.475 -7.2004
lfingers 7.12502
lthumb -20.1639 21.7731
rfemur -34.9284 -3.88139 29.4512
rtibia 39.4331
rfoot -45.6599 -22.6234
rtoes 3.11044
lfemur -33.846 4.32193 -16.7973
ltibia 36.9583
lfoot -42.3519 -2.89757
ltoes -7.05674
1025
root 14.389 30.982 38.1071 -141.656 -5.14145 -180.028
lowerback 34.065 -2.41238 -0.725641
upperback -0.567442 -3.95176 -0.447976
thorax -18.3918 -1.773 1.76706
lowerneck 34.1901 -6.03918 -14.6883
upperneck -28.8489 -9.56656 20.9786
head -13.4001 -5.69967 13.3418
rclavicle 6.36111e-015 7.15625e-015
rhumerus 101.343 -22.8847 -79.5662
rradius 118.26
rwrist 24.3595
rhand -40.6331 -14.5573
rfingers 7.12502
rthumb -13.5781 -44.0945
lclavicle 6.36111e-015 7.15625e-015
lhumerus 93.2224 30.0893 57.6366
lradius 109.795
lwrist -10.9375
lhand -47.1207 -6.74624
lfingers 7.12502
lthumb -19.8233 22.2628
rfemur -35.1167 -3.26067 29.4825
rtibia 39.3147
rfoot -45.6018 -22.1524
rtoes 3.2629
lfemur -33.9454 4.88386 -16.7732
ltibia 36.9323
lfoot -42.3556 -2.50322
ltoes -6.16061
1026
root 14.3828 30.9749 38.0426 -141.429 -5.19712 -180.201
lowerback 33.9918 -2.46091 -0.76301
upperback -0.594006 -4.01598 -0.408566
thorax -18.3855 -1.7921 1.85789
lowerneck 34.411 -6.04521 -14.8295
upperneck -28.8195 -9.67441 21.0661
head -13.3879 -5.75732 13.4335
rclavicle -1.35174e-014 -1.82882e-014
rhumerus 102.186 -23.1709 -79.8548
rradius 118.501
rwrist 24.2764
rhand -40.3706 -14.6932
rfingers 7.12502
rthumb -13.325 -44.2472
lclavicle -1.35174e-014 -1.82882e-014
lhumerus 94.0479 30.3311 58.3941
lradius 110.153
lwrist -11.1133
lhand -46.6113 -6.17586
lfingers 7.12502
lthumb -19.3335 22.8831
rfemur -35.0539 -3.27872 29.3234
rtibia 39.2144
rfoot -45.9226 -21.922
rtoes 3.84261
lfemur -33.9322 4.90584 -16.9354
ltibia 36.8738
lfoot -42.3478 -2.80499
ltoes -6.64429
1027
root 14.3747 30.9677 37.9839 -141.136 -5.25448 -180.242
lowerback 33.8574 -2.54237 -0.623319
upperback -0.626306 -4.05575 -0.40373
thorax -18.3739 -1.81822 1.80069
lowerneck 34.4684 -6.03343 -14.8855
upperneck -28.6849 -9.68433 21.1521
head -13.3315 -5.78452 13.4673
rclavicle -2.38542e-015 1.35174e-014
rhumerus 102.942 -23.3807 -80.2049
rradius 118.873
rwrist 23.5098
rhand -40.2917 -14.3508
rfingers 7.12502
rthumb -13.2489 -43.9098
lclavicle -2.38542e-015 1.35174e-014
lhumerus 94.8358 30.5318 58.9985
lradius 110.594
lwrist -11.3488
lhand -46.1224 -5.45795
lfingers 7.12502
lthumb -18.8634 23.6474
rfemur -35.0959 -3.33451 29.3068
rtibia 39.0864
rfoot -46.109 -21.6122
rtoes 4.06105
lfemur -34.0566 5.01905 -17.0203
ltibia 36.8599
lfoot -42.4134 -2.8448
ltoes -7.3179
